<svg width="47" height="48" viewBox="0 0 47 48" fill="none" xmlns="http://www.w3.org/2000/svg">
<path d="M5.875 36V24C5.875 19.2261 7.73191 14.6477 11.0372 11.2721C14.3426 7.89642 18.8256 6 23.5 6C28.1744 6 32.6574 7.89642 35.9628 11.2721C39.2681 14.6477 41.125 19.2261 41.125 24V36" stroke="black" stroke-width="3" stroke-linecap="round" stroke-linejoin="round"/>
<path d="M41.125 38C41.125 39.0609 40.7124 40.0783 39.9778 40.8284C39.2433 41.5786 38.2471 42 37.2083 42H35.25C34.2112 42 33.215 41.5786 32.4805 40.8284C31.746 40.0783 31.3333 39.0609 31.3333 38V32C31.3333 30.9391 31.746 29.9217 32.4805 29.1716C33.215 28.4214 34.2112 28 35.25 28H41.125V38ZM5.875 38C5.875 39.0609 6.28765 40.0783 7.02216 40.8284C7.75668 41.5786 8.7529 42 9.79167 42H11.75C12.7888 42 13.785 41.5786 14.5195 40.8284C15.254 40.0783 15.6667 39.0609 15.6667 38V32C15.6667 30.9391 15.254 29.9217 14.5195 29.1716C13.785 28.4214 12.7888 28 11.75 28H5.875V38Z" stroke="black" stroke-width="3" stroke-linecap="round" stroke-linejoin="round"/>
</svg>
