<svg width="47" height="48" viewBox="0 0 47 48" fill="none" xmlns="http://www.w3.org/2000/svg">
<path d="M40.8117 9.22C39.8114 8.19801 38.6239 7.38729 37.3167 6.83416C36.0096 6.28104 34.6086 5.99635 33.1938 5.99635C31.7789 5.99635 30.3779 6.28104 29.0708 6.83416C27.7637 7.38729 26.5761 8.19801 25.5758 9.22L23.5 11.34L21.4242 9.22C19.4038 7.15661 16.6635 5.99742 13.8063 5.99742C10.949 5.99742 8.20874 7.15661 6.18834 9.22C4.16795 11.2834 3.0329 14.0819 3.0329 17C3.0329 19.9181 4.16795 22.7166 6.18834 24.78L8.26418 26.9L23.5 42.46L38.7358 26.9L40.8117 24.78C41.8124 23.7585 42.6062 22.5456 43.1478 21.2107C43.6894 19.8758 43.9682 18.445 43.9682 17C43.9682 15.555 43.6894 14.1242 43.1478 12.7893C42.6062 11.4544 41.8124 10.2415 40.8117 9.22V9.22Z" stroke="black" stroke-width="3" stroke-linecap="round" stroke-linejoin="round"/>
</svg>
