<svg width="49" height="48" viewBox="0 0 49 48" fill="none" xmlns="http://www.w3.org/2000/svg">
<path d="M38.7917 6H10.2083C7.95317 6 6.125 7.79086 6.125 10V38C6.125 40.2091 7.95317 42 10.2083 42H38.7917C41.0468 42 42.875 40.2091 42.875 38V10C42.875 7.79086 41.0468 6 38.7917 6Z" stroke="black" stroke-width="3" stroke-linecap="round" stroke-linejoin="round"/>
<path d="M17.3542 20C19.0455 20 20.4167 18.6569 20.4167 17C20.4167 15.3431 19.0455 14 17.3542 14C15.6628 14 14.2917 15.3431 14.2917 17C14.2917 18.6569 15.6628 20 17.3542 20Z" stroke="black" stroke-width="3" stroke-linecap="round" stroke-linejoin="round"/>
<path d="M42.875 30L32.6667 20L10.2083 42" stroke="black" stroke-width="3" stroke-linecap="round" stroke-linejoin="round"/>
</svg>
