<svg width="30" height="30" viewBox="0 0 30 30" fill="none" xmlns="http://www.w3.org/2000/svg">
<path fill-rule="evenodd" clip-rule="evenodd" d="M15 0C10.9263 0 10.4154 0.0172659 8.81554 0.0902653C7.21896 0.163085 6.12854 0.416675 5.17443 0.787506C4.18804 1.17078 3.35154 1.68368 2.51759 2.51758C1.68369 3.35153 1.17078 4.18804 0.787506 5.17443C0.416675 6.12854 0.163095 7.21894 0.0902748 8.81552C0.0172754 10.4154 0 10.9262 0 15C0 19.0738 0.0172754 19.5846 0.0902748 21.1845C0.163095 22.7811 0.416675 23.8715 0.787506 24.8256C1.17078 25.812 1.68369 26.6485 2.51759 27.4824C3.35154 28.3163 4.18804 28.8292 5.17443 29.2126C6.12854 29.5833 7.21896 29.8369 8.81554 29.9097C10.4154 29.9827 10.9263 30 15 30C19.0738 30 19.5846 29.9827 21.1845 29.9097C22.781 29.8369 23.8714 29.5833 24.8256 29.2126C25.8119 28.8292 26.6485 28.3163 27.4824 27.4824C28.3163 26.6485 28.8292 25.812 29.2125 24.8256C29.5833 23.8715 29.8369 22.7811 29.9097 21.1845C29.9827 19.5846 30 19.0738 30 15C30 10.9262 29.9827 10.4154 29.9097 8.81552C29.8369 7.21894 29.5833 6.12854 29.2125 5.17443C28.8292 4.18804 28.3163 3.35153 27.4824 2.51758C26.6485 1.68368 25.8119 1.17078 24.8256 0.787506C23.8714 0.416675 22.781 0.163085 21.1845 0.0902653C19.5846 0.0172659 19.0738 0 15 0ZM15 2.70269C19.0052 2.70269 19.4796 2.718 21.0613 2.79016C22.5238 2.85685 23.318 3.10121 23.8466 3.30664C24.5467 3.57875 25.0464 3.90379 25.5713 4.42872C26.0962 4.95359 26.4212 5.45327 26.6933 6.15343C26.8988 6.68199 27.1431 7.47623 27.2098 8.93871C27.282 10.5204 27.2973 10.9948 27.2973 15C27.2973 19.0052 27.282 19.4796 27.2098 21.0613C27.1431 22.5238 26.8988 23.318 26.6933 23.8466C26.4212 24.5467 26.0962 25.0464 25.5713 25.5713C25.0464 26.0962 24.5467 26.4213 23.8466 26.6934C23.318 26.8988 22.5238 27.1431 21.0613 27.2098C19.4798 27.282 19.0055 27.2973 15 27.2973C10.9945 27.2973 10.5202 27.282 8.93871 27.2098C7.47623 27.1431 6.68199 26.8988 6.15343 26.6934C5.45327 26.4213 4.95358 26.0962 4.42871 25.5713C3.90384 25.0464 3.57875 24.5467 3.30664 23.8466C3.10121 23.318 2.85685 22.5238 2.79016 21.0613C2.718 19.4796 2.70269 19.0052 2.70269 15C2.70269 10.9948 2.718 10.5204 2.79016 8.93871C2.85685 7.47623 3.10121 6.68199 3.30664 6.15343C3.57875 5.45327 3.90378 4.95359 4.42871 4.42872C4.95358 3.90379 5.45327 3.57875 6.15343 3.30664C6.68199 3.10121 7.47623 2.85685 8.93871 2.79016C10.5204 2.718 10.9948 2.70269 15 2.70269ZM15 7.29731C10.7459 7.29731 7.29731 10.7459 7.29731 15C7.29731 19.2541 10.7459 22.7027 15 22.7027C19.2541 22.7027 22.7027 19.2541 22.7027 15C22.7027 10.7459 19.2541 7.29731 15 7.29731ZM15 20C12.2386 20 10 17.7614 10 15C10 12.2386 12.2386 10 15 10C17.7614 10 20 12.2386 20 15C20 17.7614 17.7614 20 15 20ZM24.8071 6.99298C24.8071 7.9871 24.0011 8.79295 23.007 8.79295C22.0129 8.79295 21.207 7.9871 21.207 6.99298C21.207 5.99886 22.0129 5.19295 23.007 5.19295C24.0011 5.19295 24.8071 5.99886 24.8071 6.99298Z" fill="#101010"/>
</svg>
