<svg width="48" height="48" viewBox="0 0 48 48" fill="none" xmlns="http://www.w3.org/2000/svg">
<path d="M42.88 22.1L24.5 40.48C22.2483 42.7317 19.1944 43.9967 16.01 43.9967C12.8256 43.9967 9.77169 42.7317 7.52 40.48C5.26831 38.2283 4.00333 35.1744 4.00333 31.99C4.00333 28.8056 5.26831 25.7517 7.52 23.5L25.9 5.12C27.4011 3.61887 29.4371 2.77555 31.56 2.77555C33.6829 2.77555 35.7189 3.61887 37.22 5.12C38.7211 6.62112 39.5644 8.65709 39.5644 10.78C39.5644 12.9029 38.7211 14.9389 37.22 16.44L18.82 34.82C18.0694 35.5706 17.0515 35.9922 15.99 35.9922C14.9285 35.9922 13.9106 35.5706 13.16 34.82C12.4094 34.0694 11.9878 33.0515 11.9878 31.99C11.9878 30.9285 12.4094 29.9106 13.16 29.16L30.14 12.2" stroke="black" stroke-width="3" stroke-linecap="round" stroke-linejoin="round"/>
</svg>
