<svg width="47" height="48" viewBox="0 0 47 48" fill="none" xmlns="http://www.w3.org/2000/svg">
<path d="M43.0833 33.84V39.84C43.0855 40.397 42.9738 40.9484 42.7553 41.4587C42.5368 41.9691 42.2164 42.4272 41.8145 42.8037C41.4126 43.1803 40.9381 43.467 40.4215 43.6454C39.9048 43.8239 39.3574 43.8901 38.8142 43.84C32.7881 43.1713 26.9995 41.0683 21.9138 37.7C17.1821 34.6293 13.1705 30.5324 10.1638 25.7C6.85413 20.4824 4.79448 14.542 4.15167 8.36C4.10273 7.80694 4.16709 7.24952 4.34065 6.72325C4.51421 6.19698 4.79316 5.71338 5.15975 5.30325C5.52634 4.89311 5.97254 4.56542 6.46993 4.34105C6.96732 4.11667 7.505 4.00053 8.04875 4H13.9238C14.8741 3.99045 15.7955 4.33416 16.5161 4.96707C17.2367 5.59998 17.7074 6.4789 17.8404 7.44C18.0884 9.36014 18.5483 11.2455 19.2113 13.06C19.4747 13.7759 19.5318 14.5538 19.3756 15.3018C19.2194 16.0497 18.8565 16.7362 18.33 17.28L15.8429 19.82C18.6307 24.8271 22.6901 28.9729 27.5929 31.82L30.08 29.28C30.6125 28.7423 31.2847 28.3717 32.017 28.2122C32.7494 28.0527 33.5112 28.1109 34.2121 28.38C35.9888 29.0571 37.8349 29.5268 39.715 29.78C40.6663 29.9171 41.5351 30.4064 42.1561 31.155C42.7772 31.9036 43.1072 32.8592 43.0833 33.84Z" stroke="black" stroke-width="3" stroke-linecap="round" stroke-linejoin="round"/>
</svg>
