<svg width="43" height="42" viewBox="0 0 43 42" fill="none" xmlns="http://www.w3.org/2000/svg">
<g clip-path="url(#clip0)">
<path fill-rule="evenodd" clip-rule="evenodd" d="M20.781 3L26.719 16H39.584L30.677 25L32.643 39L20.781 30.83L8.89097 39L11.874 25L2.96799 16H14.844L20.782 3H20.781ZM20.782 0C20.2125 0.000638942 19.6551 0.16501 19.1764 0.473511C18.6977 0.782011 18.3178 1.22162 18.0819 1.73999L12.9439 13H2.96799C2.37882 13.0014 1.80338 13.178 1.31492 13.5074C0.826451 13.8369 0.447006 14.3042 0.22495 14.85C1.01328e-06 15.3982 -0.058859 16.0004 0.0556382 16.5818C0.170135 17.1632 0.452984 17.698 0.868993 18.12L8.63199 25.97L5.98899 38.37C5.8639 38.9548 5.91533 39.5635 6.13682 40.119C6.3583 40.6745 6.73981 41.1517 7.23295 41.49C7.72201 41.8223 8.29968 42 8.89097 42C9.48776 42.0018 10.0707 41.8203 10.5609 41.48L20.779 34.46L30.9699 41.48C31.4613 41.8203 32.0453 42.0018 32.643 42C33.1978 41.9999 33.7414 41.844 34.2119 41.55C34.7022 41.2396 35.0924 40.7941 35.3354 40.2672C35.5785 39.7403 35.664 39.1544 35.5819 38.58L33.825 26.0601L41.683 18.12C42.0986 17.6978 42.3812 17.163 42.4957 16.5817C42.6102 16.0004 42.5515 15.3982 42.3269 14.85C42.1049 14.3042 41.7255 13.8369 41.237 13.5074C40.7486 13.178 40.1731 13.0014 39.584 13H28.618L23.477 1.73999C23.2411 1.22162 22.8612 0.782011 22.3825 0.473511C21.9038 0.16501 21.3465 0.000638942 20.777 0H20.782Z" fill="black"/>
</g>
<defs>
<clipPath id="clip0">
<rect width="42.532" height="42" fill="white"/>
</clipPath>
</defs>
</svg>
